<?xml version="1.0" encoding="UTF-8" standalone="no"?>
<!DOCTYPE svg PUBLIC "-//W3C//DTD SVG 1.1//EN" "http://www.w3.org/Graphics/SVG/1.1/DTD/svg11.dtd">
<svg>
<metadata>
Created by FontForge 20120731 at Fri Sep  7 17:13:07 2018
 By www-data
Copyright (c) 2014 by Philippe Moesch. All rights reserved.
</metadata>
<defs>
<font id="Sabo-Regular" horiz-adv-x="750">
  <font-face font-family="Sabo" font-weight="400" font-stretch="semi-expanded" units-per-em="1000" panose-1="0 0 5 5 0 0 0 0 0 0" ascent="800" descent="-200" x-height="675" cap-height="675" bbox="0 -225 1050 900" underline-thickness="50" underline-position="-50" unicode-range="U+0020-2026"/>
<missing-glyph horiz-adv-x="500" d="M0 0v700h500v-700h-500zM250 395l170 255h-340zM280 350l170 -255v510zM80 50h340l-170 255zM50 605v-510l170 255z"/>
    <glyph glyph-name=".notdef" horiz-adv-x="500" d="M0 0v700h500v-700h-500zM250 395l170 255h-340zM280 350l170 -255v510zM80 50h340l-170 255zM50 605v-510l170 255z"/>
    <glyph glyph-name="A" unicode="A" d="M675 600v-600h-225v225h-150v-225h-225v600h150v75h300v-75h150zM300 600v-75h150v75h-150zM225 525h-75v-450h75v450zM600 525h-75v-450h75v450zM450 300v150h-150v-150h150z"/>
    <glyph glyph-name="Aacute" unicode="Á" d="M450 825h-75v75h75v-75zM375 750h-75v75h75v-75zM675 600v-600h-225v225h-150v-225h-225v600h150v75h300v-75h150zM300 600v-75h150v75h-150zM225 525h-75v-450h75v450zM600 525h-75v-450h75v450zM450 300v150h-150v-150h150z"/>
    <glyph glyph-name="Acircumflex" unicode="Â" d="M300 825v75h150v-75h-150zM300 750h-75v75h75v-75zM450 750v75h75v-75h-75zM675 600v-600h-225v225h-150v-225h-225v600h150v75h300v-75h150zM300 600v-75h150v75h-150zM225 525h-75v-450h75v450zM600 525h-75v-450h75v450zM450 300v150h-150v-150h150z"/>
    <glyph glyph-name="Adieresis" unicode="Ä" d="M225 750h-75v75h75v-75zM600 750h-75v75h75v-75zM675 600v-600h-225v225h-150v-225h-225v600h150v75h300v-75h150zM300 600v-75h150v75h-150zM225 525h-75v-450h75v450zM600 525h-75v-450h75v450zM450 300v150h-150v-150h150z"/>
    <glyph glyph-name="Agrave" unicode="À" d="M375 825h-75v75h75v-75zM375 750v75h75v-75h-75zM675 600v-600h-225v225h-150v-225h-225v600h150v75h300v-75h150zM300 600v-75h150v75h-150zM225 525h-75v-450h75v450zM600 525h-75v-450h75v450zM450 300v150h-150v-150h150z"/>
    <glyph glyph-name="Aring" unicode="Å" d="M375 825h-75v75h75v-75zM300 825v-75h-75v75h75zM375 750v75h75v-75h-75zM675 600v-600h-225v225h-150v-225h-225v600h150v75h75v75h75v-75h150v-75h150zM300 600v-75h150v75h-150zM225 525h-75v-450h75v450zM600 525h-75v-450h75v450zM450 300v150h-150v-150h150z"/>
    <glyph glyph-name="Atilde" unicode="Ã" d="M375 825h-75v75h75v-75zM525 825h-75v75h75v-75zM300 750h-75v75h75v-75zM375 750v75h75v-75h-75zM675 600v-600h-225v225h-150v-225h-225v600h150v75h300v-75h150zM300 600v-75h150v75h-150zM225 525h-75v-450h75v450zM600 525h-75v-450h75v450zM450 300v150h-150v-150 h150z"/>
    <glyph glyph-name="AE" unicode="Æ" horiz-adv-x="1125" d="M1050 675v-225h-375v-75h300v-75h-300v-75h375v-225h-600v225h-150v-225h-225v600h150v75h300v-75h75v75h450zM300 600v-75h150v75h-150zM975 600h-300v-75h300v75zM225 525h-75v-450h75v450zM600 525h-75v-450h75v450zM450 300v150h-150v-150h150zM675 150v-75h300v75 h-300z"/>
    <glyph glyph-name="B" unicode="B" d="M600 75v-75h-525v675h450v-75h-225v-525h300zM225 75v525h-75v-525h75zM525 600h75v-225h-75v225zM450 450h-75v75h75v-75zM675 375v-300h-75v300h75zM450 225h75v-75h-150v150h75v-75z"/>
    <glyph glyph-name="C" unicode="C" d="M675 675v-225h-375v-225h375v-225h-450v75h-150v525h150v75h450zM600 600h-300v-75h300v75zM225 525h-75v-375h75v375zM300 150v-75h300v75h-300z"/>
    <glyph glyph-name="Ccedilla" unicode="Ç" d="M675 675v-225h-375v-225h375v-225h-225v-75h-75v75h-150v75h-150v525h150v75h450zM600 600h-300v-75h300v75zM225 525h-75v-375h75v375zM300 150v-75h300v75h-300zM450 -150v75h75v-75h-75zM375 -150h75v-75h-75v75z"/>
    <glyph glyph-name="D" unicode="D" d="M600 75v-75h-525v675h525v-75h-300v-75h225v-375h-225v-75h300zM225 75v525h-75v-525h75zM675 600v-525h-75v525h75zM300 450v-225h150v225h-150z"/>
    <glyph glyph-name="E" unicode="E" d="M675 675v-225h-375v-75h300v-75h-300v-75h375v-225h-600v675h600zM225 600h-75v-525h75v525zM600 600h-300v-75h300v75zM300 150v-75h300v75h-300z"/>
    <glyph glyph-name="Eacute" unicode="É" d="M450 825h-75v75h75v-75zM375 750h-75v75h75v-75zM675 675v-225h-375v-75h300v-75h-300v-75h375v-225h-600v675h600zM225 600h-75v-525h75v525zM600 600h-300v-75h300v75zM300 150v-75h300v75h-300z"/>
    <glyph glyph-name="Ecircumflex" unicode="Ê" d="M300 825v75h150v-75h-150zM300 750h-75v75h75v-75zM450 750v75h75v-75h-75zM675 675v-225h-375v-75h300v-75h-300v-75h375v-225h-600v675h600zM225 600h-75v-525h75v525zM600 600h-300v-75h300v75zM300 150v-75h300v75h-300z"/>
    <glyph glyph-name="Edieresis" unicode="Ë" d="M225 750h-75v75h75v-75zM600 750h-75v75h75v-75zM675 675v-225h-375v-75h300v-75h-300v-75h375v-225h-600v675h600zM225 600h-75v-525h75v525zM600 600h-300v-75h300v75zM300 150v-75h300v75h-300z"/>
    <glyph glyph-name="Egrave" unicode="È" d="M375 825h-75v75h75v-75zM375 750v75h75v-75h-75zM675 675v-225h-375v-75h300v-75h-300v-75h375v-225h-600v675h600zM225 600h-75v-525h75v525zM600 600h-300v-75h300v75zM300 150v-75h300v75h-300z"/>
    <glyph glyph-name="F" unicode="F" d="M675 675v-225h-375v-75h300v-225h-300v-150h-225v675h600zM225 600h-75v-525h75v525zM600 600h-300v-75h300v75zM300 300v-75h225v75h-225z"/>
    <glyph glyph-name="G" unicode="G" d="M675 675v-225h-375v-225h150v75h225v-300h-450v75h-150v525h150v75h450zM600 600h-300v-75h300v75zM225 525h-75v-375h75v375zM300 150v-75h300v150h-75v-75h-225z"/>
    <glyph glyph-name="H" unicode="H" d="M675 675v-675h-225v225h-150v-225h-225v675h225v-225h150v225h225zM225 600h-75v-525h75v525zM600 600h-75v-525h75v525zM450 300v75h-150v-75h150z"/>
    <glyph glyph-name="I" unicode="I" horiz-adv-x="375" d="M300 675v-675h-225v675h225zM225 600h-75v-525h75v525z"/>
    <glyph glyph-name="Icircumflex" unicode="Î" horiz-adv-x="375" d="M225 900v-75h-75v75h75zM75 825h75v-75h-75v75zM300 825v-75h-75v75h75zM300 675v-675h-225v675h225zM225 600h-75v-525h75v525z"/>
    <glyph glyph-name="Idieresis" unicode="Ï" horiz-adv-x="375" d="M150 750h-75v75h75v-75zM300 825v-75h-75v75h75zM300 675v-675h-225v675h225zM225 600h-75v-525h75v525z"/>
    <glyph glyph-name="Igrave" unicode="Ì" horiz-adv-x="375" d="M150 825h-75v75h75v-75zM150 750v75h75v-75h-75zM300 675v-675h-225v675h225zM225 600h-75v-525h75v525z"/>
    <glyph glyph-name="J" unicode="J" horiz-adv-x="525" d="M450 675v-750h-75v675h-75v-600h-150v-75h225v-75h-300v225h150v600h225z"/>
    <glyph glyph-name="K" unicode="K" d="M375 225v-75h-75v-150h-225v675h225v-150h75v-75h-75v-225h75zM675 675v-150h-75v75h-150v75h225zM225 600h-75v-525h75v525zM450 525h-75v75h75v-75zM525 525h75v-75h-75v75zM450 450h75v-75h-75v75zM375 375h75v-75h-75v75zM450 225v75h75v-75h-75zM525 150v75h75v-75 h-75zM450 150v-75h-75v75h75zM600 75v75h75v-150h-225v75h150z"/>
    <glyph glyph-name="L" unicode="L" horiz-adv-x="675" d="M600 225v-225h-525v675h225v-450h300zM225 75v525h-75v-525h75zM525 150h-225v-75h225v75z"/>
    <glyph glyph-name="M" unicode="M" horiz-adv-x="825" d="M375 375v-75h-75v-300h-225v675h225v-75h75v-75h-75v-150h75zM750 675v-675h-225v300h-75v75h75v150h-75v75h75v75h225zM225 600h-75v-525h75v525zM675 600h-75v-525h75v525zM375 450v75h75v-75h-75zM375 300h75v-75h-75v75z"/>
    <glyph glyph-name="N" unicode="N" d="M375 300v-75h-75v-225h-225v675h150v-75h-75v-525h75v525h75v-75h75v-75h-75v-150h75zM675 675v-675h-150v75h75v525h-75v-525h-75v75h-75v75h75v150h-75v75h75v225h225z"/>
    <glyph glyph-name="Ntilde" unicode="Ñ" d="M375 825h-75v75h75v-75zM525 825h-75v75h75v-75zM300 750h-75v75h75v-75zM375 750v75h75v-75h-75zM375 300v-75h-75v-225h-225v675h150v-75h-75v-525h75v525h75v-75h75v-75h-75v-150h75zM675 675v-675h-150v75h75v525h-75v-525h-75v75h-75v75h75v150h-75v75h75v225h225z "/>
    <glyph glyph-name="O" unicode="O" d="M150 600v75h450v-75h-450zM150 75h-75v525h75v-525zM675 600v-525h-75v525h75zM525 525v-375h-300v375h300zM450 450h-150v-225h150v225zM600 75v-75h-450v75h450z"/>
    <glyph glyph-name="Oacute" unicode="Ó" d="M450 825h-75v75h75v-75zM375 750h-75v75h75v-75zM150 600v75h450v-75h-450zM150 75h-75v525h75v-525zM675 600v-525h-75v525h75zM525 525v-375h-300v375h300zM450 450h-150v-225h150v225zM600 75v-75h-450v75h450z"/>
    <glyph glyph-name="Ocircumflex" unicode="Ô" d="M300 825v75h150v-75h-150zM300 750h-75v75h75v-75zM450 750v75h75v-75h-75zM150 600v75h450v-75h-450zM150 75h-75v525h75v-525zM675 600v-525h-75v525h75zM525 525v-375h-300v375h300zM450 450h-150v-225h150v225zM600 75v-75h-450v75h450z"/>
    <glyph glyph-name="Odieresis" unicode="Ö" d="M225 750h-75v75h75v-75zM600 750h-75v75h75v-75zM150 600v75h450v-75h-450zM150 75h-75v525h75v-525zM675 600v-525h-75v525h75zM525 525v-375h-300v375h300zM450 450h-150v-225h150v225zM600 75v-75h-450v75h450z"/>
    <glyph glyph-name="Ograve" unicode="Ò" d="M375 825h-75v75h75v-75zM375 750v75h75v-75h-75zM150 600v75h450v-75h-450zM150 75h-75v525h75v-525zM675 600v-525h-75v525h75zM525 525v-375h-300v375h300zM450 450h-150v-225h150v225zM600 75v-75h-450v75h450z"/>
    <glyph glyph-name="Otilde" unicode="Õ" d="M375 825h-75v75h75v-75zM525 825h-75v75h75v-75zM300 750h-75v75h75v-75zM375 750v75h75v-75h-75zM150 600v75h450v-75h-450zM150 75h-75v525h75v-525zM675 600v-525h-75v525h75zM525 525v-375h-300v375h300zM450 450h-150v-225h150v225zM600 75v-75h-450v75h450z"/>
    <glyph glyph-name="OE" unicode="Œ" horiz-adv-x="1125" d="M1050 675v-225h-375v-75h300v-75h-300v-75h375v-225h-900v75h450v525h-450v75h900zM150 75h-75v525h75v-525zM975 600h-300v-75h300v75zM225 150v375h300v-375h-300zM300 225h150v225h-150v-225zM675 150v-75h300v75h-300z"/>
    <glyph glyph-name="P" unicode="P" d="M600 225v-75h-300v-150h-225v675h525v-75h-300v-75h225v-225h-225v-75h300zM225 600h-75v-525h75v525zM675 600v-375h-75v375h75zM300 450v-75h150v75h-150z"/>
    <glyph glyph-name="Q" unicode="Q" d="M150 600v75h450v-75h-450zM150 75h-75v525h75v-525zM675 600v-525h-75v525h75zM525 525v-375h-300v375h300zM450 450h-150v-225h150v225zM375 75v-75h-225v75h225zM525 75h75v-75h-75v75zM525 0v-75h-150v75h150zM525 -150v75h150v-75h-150z"/>
    <glyph glyph-name="R" unicode="R" d="M375 225v-75h-75v-150h-225v675h525v-75h-300v-75h225v-225h-225v-75h75zM225 600h-75v-525h75v525zM675 600v-375h-75v375h75zM300 450v-75h150v75h-150zM525 225h75v-75h-75v75zM450 150v-75h-75v75h75zM600 75v75h75v-150h-225v75h150z"/>
    <glyph glyph-name="S" unicode="S" d="M150 600v75h450v-75h-450zM150 375h-75v225h75v-225zM675 600v-150h-375v-75h300v-75h-75v-150h-375v-75h-75v150h375v75h-300v75h75v150h375v75h75zM600 300h75v-225h-75v225zM600 75v-75h-450v75h450z"/>
    <glyph glyph-name="T" unicode="T" horiz-adv-x="825" d="M750 675v-225h-225v-450h-225v450h-225v225h675zM675 600h-525v-75h525v75zM450 450h-75v-375h75v375z"/>
    <glyph glyph-name="U" unicode="U" d="M675 675v-600h-75v525h-75v-450h-300v450h-75v-525h-75v600h225v-450h150v450h225zM600 75v-75h-450v75h450z"/>
    <glyph glyph-name="Uacute" unicode="Ú" d="M450 825h-75v75h75v-75zM375 750h-75v75h75v-75zM675 675v-600h-75v525h-75v-450h-300v450h-75v-525h-75v600h225v-450h150v450h225zM600 75v-75h-450v75h450z"/>
    <glyph glyph-name="Ucircumflex" unicode="Û" d="M300 825v75h150v-75h-150zM300 750h-75v75h75v-75zM450 750v75h75v-75h-75zM675 675v-600h-75v525h-75v-450h-300v450h-75v-525h-75v600h225v-450h150v450h225zM600 75v-75h-450v75h450z"/>
    <glyph glyph-name="Udieresis" unicode="Ü" d="M225 750h-75v75h75v-75zM600 750h-75v75h75v-75zM675 675v-600h-75v525h-75v-450h-300v450h-75v-525h-75v600h225v-450h150v450h225zM600 75v-75h-450v75h450z"/>
    <glyph glyph-name="Ugrave" unicode="Ù" d="M375 825h-75v75h75v-75zM375 750v75h75v-75h-75zM675 675v-600h-75v525h-75v-450h-300v450h-75v-525h-75v600h225v-450h150v450h225zM600 75v-75h-450v75h450z"/>
    <glyph glyph-name="V" unicode="V" d="M150 225h-75v450h225v-375h-75v300h-75v-375zM675 675v-450h-75v375h-75v-300h-75v375h225zM300 225v75h150v-75h-150zM225 225v-75h-75v75h75zM525 225h75v-75h-75v75zM300 150v-75h-75v75h75zM450 150h75v-75h-75v75zM450 75v-75h-150v75h150z"/>
    <glyph glyph-name="W" unicode="W" horiz-adv-x="825" d="M300 150h75v-75h-75v-75h-225v675h225v-300h75v-75h-75v-150zM750 675v-675h-225v75h-75v75h75v150h-75v75h75v300h225zM225 600h-75v-525h75v525zM675 600h-75v-525h75v525zM450 375h-75v75h75v-75zM450 225v-75h-75v75h75z"/>
    <glyph glyph-name="Wacute" unicode="Ẃ" horiz-adv-x="825" d="M525 825h-75v75h75v-75zM450 750h-75v75h75v-75zM300 150h75v-75h-75v-75h-225v675h225v-300h75v-75h-75v-150zM750 675v-675h-225v75h-75v75h75v150h-75v75h75v300h225zM225 600h-75v-525h75v525zM675 600h-75v-525h75v525zM450 375h-75v75h75v-75zM450 225v-75h-75v75 h75z"/>
    <glyph glyph-name="Wcircumflex" unicode="Ŵ" horiz-adv-x="825" d="M450 825h-75v75h75v-75zM375 750h-75v75h75v-75zM450 750v75h75v-75h-75zM300 150h75v-75h-75v-75h-225v675h225v-300h75v-75h-75v-150zM750 675v-675h-225v75h-75v75h75v150h-75v75h75v300h225zM225 600h-75v-525h75v525zM675 600h-75v-525h75v525zM450 375h-75v75h75 v-75zM450 225v-75h-75v75h75z"/>
    <glyph glyph-name="Wdieresis" unicode="Ẅ" horiz-adv-x="825" d="M225 750h-75v75h75v-75zM675 750h-75v75h75v-75zM300 150h75v-75h-75v-75h-225v675h225v-300h75v-75h-75v-150zM750 675v-675h-225v75h-75v75h75v150h-75v75h75v300h225zM225 600h-75v-525h75v525zM675 600h-75v-525h75v525zM450 375h-75v75h75v-75zM450 225v-75h-75v75 h75z"/>
    <glyph glyph-name="Wgrave" unicode="Ẁ" horiz-adv-x="825" d="M375 825h-75v75h75v-75zM375 750v75h75v-75h-75zM300 150h75v-75h-75v-75h-225v675h225v-300h75v-75h-75v-150zM750 675v-675h-225v75h-75v75h75v150h-75v75h75v300h225zM225 600h-75v-525h75v525zM675 600h-75v-525h75v525zM450 375h-75v75h75v-75zM450 225v-75h-75v75 h75z"/>
    <glyph glyph-name="X" unicode="X" horiz-adv-x="825" d="M150 600v-75h-75v150h225v-75h-150zM750 675v-150h-75v75h-150v75h225zM300 525v75h75v-75h-75zM525 525h-75v75h75v-75zM225 525v-75h-75v75h75zM375 450v75h75v-75h-75zM600 525h75v-75h-75v75zM300 450v-75h-75v75h75zM525 450h75v-75h-75v75zM375 300h-75v75h75v-75z M450 375h75v-75h-75v75zM300 225h-75v75h75v-75zM525 225v75h75v-75h-75zM225 150h-75v75h75v-75zM450 225v-75h-75v75h75zM600 150v75h75v-75h-75zM300 75v-75h-225v150h75v-75h150zM300 150h75v-75h-75v75zM525 150v-75h-75v75h75zM675 75v75h75v-150h-225v75h150z"/>
    <glyph glyph-name="Y" unicode="Y" horiz-adv-x="825" d="M150 600v-75h-75v150h225v-75h-150zM750 675v-150h-75v75h-150v75h225zM300 525v75h75v-75h-75zM525 525h-75v75h75v-75zM225 525v-75h-75v75h75zM375 450v75h75v-75h-75zM600 525h75v-75h-75v75zM300 450v-75h-75v75h75zM525 450h75v-75h-75v75zM450 375h75v-375h-225 v375h75v-300h75v300z"/>
    <glyph glyph-name="Yacute" unicode="Ý" horiz-adv-x="825" d="M525 825h-75v75h75v-75zM450 750h-75v75h75v-75zM150 600v-75h-75v150h225v-75h-150zM750 675v-150h-75v75h-150v75h225zM300 525v75h75v-75h-75zM525 525h-75v75h75v-75zM225 525v-75h-75v75h75zM375 450v75h75v-75h-75zM600 525h75v-75h-75v75zM300 450v-75h-75v75h75z M525 450h75v-75h-75v75zM450 375h75v-375h-225v375h75v-300h75v300z"/>
    <glyph glyph-name="Ycircumflex" unicode="Ŷ" horiz-adv-x="825" d="M450 825h-75v75h75v-75zM375 750h-75v75h75v-75zM450 750v75h75v-75h-75zM150 600v-75h-75v150h225v-75h-150zM750 675v-150h-75v75h-150v75h225zM300 525v75h75v-75h-75zM525 525h-75v75h75v-75zM225 525v-75h-75v75h75zM375 450v75h75v-75h-75zM600 525h75v-75h-75v75z M300 450v-75h-75v75h75zM525 450h75v-75h-75v75zM450 375h75v-375h-225v375h75v-300h75v300z"/>
    <glyph glyph-name="Ydieresis" unicode="Ÿ" horiz-adv-x="825" d="M225 750h-75v75h75v-75zM675 750h-75v75h75v-75zM150 600v-75h-75v150h225v-75h-150zM750 675v-150h-75v75h-150v75h225zM300 525v75h75v-75h-75zM525 525h-75v75h75v-75zM225 525v-75h-75v75h75zM375 450v75h75v-75h-75zM600 525h75v-75h-75v75zM300 450v-75h-75v75h75z M525 450h75v-75h-75v75zM450 375h75v-375h-225v375h75v-300h75v300z"/>
    <glyph glyph-name="Ygrave" unicode="Ỳ" horiz-adv-x="825" d="M375 825h-75v75h75v-75zM375 750v75h75v-75h-75zM150 600v-75h-75v150h225v-75h-150zM750 675v-150h-75v75h-150v75h225zM300 525v75h75v-75h-75zM525 525h-75v75h75v-75zM225 525v-75h-75v75h75zM375 450v75h75v-75h-75zM600 525h75v-75h-75v75zM300 450v-75h-75v75h75z M525 450h75v-75h-75v75zM450 375h75v-375h-225v375h75v-300h75v300z"/>
    <glyph glyph-name="Z" unicode="Z" d="M675 675v-225h-75v150h-450v-75h300v-75h-75v-75h-75v75h-225v225h600zM525 450h75v-75h-75v75zM300 300h-75v75h75v-75zM450 375h75v-75h-75v75zM375 300h75v-75h225v-225h-600v225h75v-150h450v75h-300v75h75v75zM225 225h-75v75h75v-75z"/>
    <glyph glyph-name="a" unicode="a" d="M675 600v-600h-225v225h-150v-225h-225v600h150v75h300v-75h150zM300 600v-75h150v75h-150zM225 525h-75v-450h75v450zM600 525h-75v-450h75v450zM450 300v150h-150v-150h150z"/>
    <glyph glyph-name="aacute" unicode="á" d="M450 825h-75v75h75v-75zM375 750h-75v75h75v-75zM675 600v-600h-225v225h-150v-225h-225v600h150v75h300v-75h150zM300 600v-75h150v75h-150zM225 525h-75v-450h75v450zM600 525h-75v-450h75v450zM450 300v150h-150v-150h150z"/>
    <glyph glyph-name="acircumflex" unicode="â" d="M300 825v75h150v-75h-150zM300 750h-75v75h75v-75zM450 750v75h75v-75h-75zM675 600v-600h-225v225h-150v-225h-225v600h150v75h300v-75h150zM300 600v-75h150v75h-150zM225 525h-75v-450h75v450zM600 525h-75v-450h75v450zM450 300v150h-150v-150h150z"/>
    <glyph glyph-name="adieresis" unicode="ä" d="M225 750h-75v75h75v-75zM600 750h-75v75h75v-75zM675 600v-600h-225v225h-150v-225h-225v600h150v75h300v-75h150zM300 600v-75h150v75h-150zM225 525h-75v-450h75v450zM600 525h-75v-450h75v450zM450 300v150h-150v-150h150z"/>
    <glyph glyph-name="agrave" unicode="à" d="M375 825h-75v75h75v-75zM375 750v75h75v-75h-75zM675 600v-600h-225v225h-150v-225h-225v600h150v75h300v-75h150zM300 600v-75h150v75h-150zM225 525h-75v-450h75v450zM600 525h-75v-450h75v450zM450 300v150h-150v-150h150z"/>
    <glyph glyph-name="aring" unicode="å" d="M375 825h-75v75h75v-75zM300 825v-75h-75v75h75zM375 750v75h75v-75h-75zM675 600v-600h-225v225h-150v-225h-225v600h150v75h75v75h75v-75h150v-75h150zM300 600v-75h150v75h-150zM225 525h-75v-450h75v450zM600 525h-75v-450h75v450zM450 300v150h-150v-150h150z"/>
    <glyph glyph-name="atilde" unicode="ã" d="M375 825h-75v75h75v-75zM525 825h-75v75h75v-75zM300 750h-75v75h75v-75zM375 750v75h75v-75h-75zM675 600v-600h-225v225h-150v-225h-225v600h150v75h300v-75h150zM300 600v-75h150v75h-150zM225 525h-75v-450h75v450zM600 525h-75v-450h75v450zM450 300v150h-150v-150 h150z"/>
    <glyph glyph-name="ae" unicode="æ" horiz-adv-x="1125" d="M1050 675v-225h-375v-75h300v-75h-300v-75h375v-225h-600v225h-150v-225h-225v600h150v75h300v-75h75v75h450zM300 600v-75h150v75h-150zM975 600h-300v-75h300v75zM225 525h-75v-450h75v450zM600 525h-75v-450h75v450zM450 300v150h-150v-150h150zM675 150v-75h300v75 h-300z"/>
    <glyph glyph-name="b" unicode="b" d="M600 75v-75h-525v675h450v-75h-225v-525h300zM225 75v525h-75v-525h75zM525 600h75v-225h-75v225zM450 450h-75v75h75v-75zM675 375v-300h-75v300h75zM450 225h75v-75h-150v150h75v-75z"/>
    <glyph glyph-name="c" unicode="c" d="M675 675v-225h-375v-225h375v-225h-450v75h-150v525h150v75h450zM600 600h-300v-75h300v75zM225 525h-75v-375h75v375zM300 150v-75h300v75h-300z"/>
    <glyph glyph-name="ccedilla" unicode="ç" d="M675 675v-225h-375v-225h375v-225h-225v-75h-75v75h-150v75h-150v525h150v75h450zM600 600h-300v-75h300v75zM225 525h-75v-375h75v375zM300 150v-75h300v75h-300zM450 -150v75h75v-75h-75zM375 -150h75v-75h-75v75z"/>
    <glyph glyph-name="d" unicode="d" d="M600 75v-75h-525v675h525v-75h-300v-75h225v-375h-225v-75h300zM225 75v525h-75v-525h75zM675 600v-525h-75v525h75zM300 450v-225h150v225h-150z"/>
    <glyph glyph-name="e" unicode="e" d="M675 675v-225h-375v-75h300v-75h-300v-75h375v-225h-600v675h600zM225 600h-75v-525h75v525zM600 600h-300v-75h300v75zM300 150v-75h300v75h-300z"/>
    <glyph glyph-name="eacute" unicode="é" d="M450 825h-75v75h75v-75zM375 750h-75v75h75v-75zM675 675v-225h-375v-75h300v-75h-300v-75h375v-225h-600v675h600zM225 600h-75v-525h75v525zM600 600h-300v-75h300v75zM300 150v-75h300v75h-300z"/>
    <glyph glyph-name="ecircumflex" unicode="ê" d="M300 825v75h150v-75h-150zM300 750h-75v75h75v-75zM450 750v75h75v-75h-75zM675 675v-225h-375v-75h300v-75h-300v-75h375v-225h-600v675h600zM225 600h-75v-525h75v525zM600 600h-300v-75h300v75zM300 150v-75h300v75h-300z"/>
    <glyph glyph-name="edieresis" unicode="ë" d="M225 750h-75v75h75v-75zM600 750h-75v75h75v-75zM675 675v-225h-375v-75h300v-75h-300v-75h375v-225h-600v675h600zM225 600h-75v-525h75v525zM600 600h-300v-75h300v75zM300 150v-75h300v75h-300z"/>
    <glyph glyph-name="egrave" unicode="è" d="M375 825h-75v75h75v-75zM375 750v75h75v-75h-75zM675 675v-225h-375v-75h300v-75h-300v-75h375v-225h-600v675h600zM225 600h-75v-525h75v525zM600 600h-300v-75h300v75zM300 150v-75h300v75h-300z"/>
    <glyph glyph-name="f" unicode="f" d="M675 675v-225h-375v-75h300v-225h-300v-150h-225v675h600zM225 600h-75v-525h75v525zM600 600h-300v-75h300v75zM300 300v-75h225v75h-225z"/>
    <glyph glyph-name="g" unicode="g" d="M675 675v-225h-375v-225h150v75h225v-300h-450v75h-150v525h150v75h450zM600 600h-300v-75h300v75zM225 525h-75v-375h75v375zM300 150v-75h300v150h-75v-75h-225z"/>
    <glyph glyph-name="h" unicode="h" d="M675 675v-675h-225v225h-150v-225h-225v675h225v-225h150v225h225zM225 600h-75v-525h75v525zM600 600h-75v-525h75v525zM450 300v75h-150v-75h150z"/>
    <glyph glyph-name="i" unicode="i" horiz-adv-x="375" d="M300 675v-675h-225v675h225zM225 600h-75v-525h75v525z"/>
    <glyph glyph-name="icircumflex" unicode="î" horiz-adv-x="375" d="M225 900v-75h-75v75h75zM75 825h75v-75h-75v75zM300 825v-75h-75v75h75zM300 675v-675h-225v675h225zM225 600h-75v-525h75v525z"/>
    <glyph glyph-name="idieresis" unicode="ï" horiz-adv-x="375" d="M150 750h-75v75h75v-75zM300 825v-75h-75v75h75zM300 675v-675h-225v675h225zM225 600h-75v-525h75v525z"/>
    <glyph glyph-name="igrave" unicode="ì" horiz-adv-x="375" d="M150 825h-75v75h75v-75zM150 750v75h75v-75h-75zM300 675v-675h-225v675h225zM225 600h-75v-525h75v525z"/>
    <glyph glyph-name="j" unicode="j" horiz-adv-x="525" d="M450 675v-750h-75v675h-75v-600h-150v-75h225v-75h-300v225h150v600h225z"/>
    <glyph glyph-name="k" unicode="k" d="M375 225v-75h-75v-150h-225v675h225v-150h75v-75h-75v-225h75zM675 675v-150h-75v75h-150v75h225zM225 600h-75v-525h75v525zM450 525h-75v75h75v-75zM525 525h75v-75h-75v75zM450 450h75v-75h-75v75zM375 375h75v-75h-75v75zM450 225v75h75v-75h-75zM525 150v75h75v-75 h-75zM450 150v-75h-75v75h75zM600 75v75h75v-150h-225v75h150z"/>
    <glyph glyph-name="l" unicode="l" horiz-adv-x="675" d="M600 225v-225h-525v675h225v-450h300zM225 75v525h-75v-525h75zM525 150h-225v-75h225v75z"/>
    <glyph glyph-name="m" unicode="m" horiz-adv-x="825" d="M375 375v-75h-75v-300h-225v675h225v-75h75v-75h-75v-150h75zM750 675v-675h-225v300h-75v75h75v150h-75v75h75v75h225zM225 600h-75v-525h75v525zM675 600h-75v-525h75v525zM375 450v75h75v-75h-75zM375 300h75v-75h-75v75z"/>
    <glyph glyph-name="n" unicode="n" d="M375 300v-75h-75v-225h-225v675h150v-75h-75v-525h75v525h75v-75h75v-75h-75v-150h75zM675 675v-675h-150v75h75v525h-75v-525h-75v75h-75v75h75v150h-75v75h75v225h225z"/>
    <glyph glyph-name="ntilde" unicode="ñ" d="M375 825h-75v75h75v-75zM525 825h-75v75h75v-75zM300 750h-75v75h75v-75zM375 750v75h75v-75h-75zM375 300v-75h-75v-225h-225v675h150v-75h-75v-525h75v525h75v-75h75v-75h-75v-150h75zM675 675v-675h-150v75h75v525h-75v-525h-75v75h-75v75h75v150h-75v75h75v225h225z "/>
    <glyph glyph-name="o" unicode="o" d="M150 600v75h450v-75h-450zM150 75h-75v525h75v-525zM675 600v-525h-75v525h75zM525 525v-375h-300v375h300zM450 450h-150v-225h150v225zM600 75v-75h-450v75h450z"/>
    <glyph glyph-name="oacute" unicode="ó" d="M450 825h-75v75h75v-75zM375 750h-75v75h75v-75zM150 600v75h450v-75h-450zM150 75h-75v525h75v-525zM675 600v-525h-75v525h75zM525 525v-375h-300v375h300zM450 450h-150v-225h150v225zM600 75v-75h-450v75h450z"/>
    <glyph glyph-name="ocircumflex" unicode="ô" d="M300 825v75h150v-75h-150zM300 750h-75v75h75v-75zM450 750v75h75v-75h-75zM150 600v75h450v-75h-450zM150 75h-75v525h75v-525zM675 600v-525h-75v525h75zM525 525v-375h-300v375h300zM450 450h-150v-225h150v225zM600 75v-75h-450v75h450z"/>
    <glyph glyph-name="odieresis" unicode="ö" d="M225 750h-75v75h75v-75zM600 750h-75v75h75v-75zM150 600v75h450v-75h-450zM150 75h-75v525h75v-525zM675 600v-525h-75v525h75zM525 525v-375h-300v375h300zM450 450h-150v-225h150v225zM600 75v-75h-450v75h450z"/>
    <glyph glyph-name="ograve" unicode="ò" d="M375 825h-75v75h75v-75zM375 750v75h75v-75h-75zM150 600v75h450v-75h-450zM150 75h-75v525h75v-525zM675 600v-525h-75v525h75zM525 525v-375h-300v375h300zM450 450h-150v-225h150v225zM600 75v-75h-450v75h450z"/>
    <glyph glyph-name="otilde" unicode="õ" d="M375 825h-75v75h75v-75zM525 825h-75v75h75v-75zM300 750h-75v75h75v-75zM375 750v75h75v-75h-75zM150 600v75h450v-75h-450zM150 75h-75v525h75v-525zM675 600v-525h-75v525h75zM525 525v-375h-300v375h300zM450 450h-150v-225h150v225zM600 75v-75h-450v75h450z"/>
    <glyph glyph-name="p" unicode="p" d="M600 225v-75h-300v-150h-225v675h525v-75h-300v-75h225v-225h-225v-75h300zM225 600h-75v-525h75v525zM675 600v-375h-75v375h75zM300 450v-75h150v75h-150z"/>
    <glyph glyph-name="q" unicode="q" d="M150 600v75h450v-75h-450zM150 75h-75v525h75v-525zM675 600v-525h-75v525h75zM525 525v-375h-300v375h300zM450 450h-150v-225h150v225zM375 75v-75h-225v75h225zM525 75h75v-75h-75v75zM525 0v-75h-150v75h150zM525 -150v75h150v-75h-150z"/>
    <glyph glyph-name="r" unicode="r" d="M375 225v-75h-75v-150h-225v675h525v-75h-300v-75h225v-225h-225v-75h75zM225 600h-75v-525h75v525zM675 600v-375h-75v375h75zM300 450v-75h150v75h-150zM525 225h75v-75h-75v75zM450 150v-75h-75v75h75zM600 75v75h75v-150h-225v75h150z"/>
    <glyph glyph-name="s" unicode="s" d="M150 600v75h450v-75h-450zM150 375h-75v225h75v-225zM675 600v-150h-375v-75h300v-75h-75v-150h-375v-75h-75v150h375v75h-300v75h75v150h375v75h75zM600 300h75v-225h-75v225zM600 75v-75h-450v75h450z"/>
    <glyph glyph-name="t" unicode="t" horiz-adv-x="825" d="M750 675v-225h-225v-450h-225v450h-225v225h675zM675 600h-525v-75h525v75zM450 450h-75v-375h75v375z"/>
    <glyph glyph-name="u" unicode="u" d="M675 675v-600h-75v525h-75v-450h-300v450h-75v-525h-75v600h225v-450h150v450h225zM600 75v-75h-450v75h450z"/>
    <glyph glyph-name="uacute" unicode="ú" d="M450 825h-75v75h75v-75zM375 750h-75v75h75v-75zM675 675v-600h-75v525h-75v-450h-300v450h-75v-525h-75v600h225v-450h150v450h225zM600 75v-75h-450v75h450z"/>
    <glyph glyph-name="ucircumflex" unicode="û" d="M300 825v75h150v-75h-150zM300 750h-75v75h75v-75zM450 750v75h75v-75h-75zM675 675v-600h-75v525h-75v-450h-300v450h-75v-525h-75v600h225v-450h150v450h225zM600 75v-75h-450v75h450z"/>
    <glyph glyph-name="udieresis" unicode="ü" d="M225 750h-75v75h75v-75zM600 750h-75v75h75v-75zM675 675v-600h-75v525h-75v-450h-300v450h-75v-525h-75v600h225v-450h150v450h225zM600 75v-75h-450v75h450z"/>
    <glyph glyph-name="ugrave" unicode="ù" d="M375 825h-75v75h75v-75zM375 750v75h75v-75h-75zM675 675v-600h-75v525h-75v-450h-300v450h-75v-525h-75v600h225v-450h150v450h225zM600 75v-75h-450v75h450z"/>
    <glyph glyph-name="v" unicode="v" d="M150 225h-75v450h225v-375h-75v300h-75v-375zM675 675v-450h-75v375h-75v-300h-75v375h225zM300 225v75h150v-75h-150zM225 225v-75h-75v75h75zM525 225h75v-75h-75v75zM300 150v-75h-75v75h75zM450 150h75v-75h-75v75zM450 75v-75h-150v75h150z"/>
    <glyph glyph-name="w" unicode="w" horiz-adv-x="825" d="M300 150h75v-75h-75v-75h-225v675h225v-300h75v-75h-75v-150zM750 675v-675h-225v75h-75v75h75v150h-75v75h75v300h225zM225 600h-75v-525h75v525zM675 600h-75v-525h75v525zM450 375h-75v75h75v-75zM450 225v-75h-75v75h75z"/>
    <glyph glyph-name="wacute" unicode="ẃ" horiz-adv-x="825" d="M525 825h-75v75h75v-75zM450 750h-75v75h75v-75zM300 150h75v-75h-75v-75h-225v675h225v-300h75v-75h-75v-150zM750 675v-675h-225v75h-75v75h75v150h-75v75h75v300h225zM225 600h-75v-525h75v525zM675 600h-75v-525h75v525zM450 375h-75v75h75v-75zM450 225v-75h-75v75 h75z"/>
    <glyph glyph-name="wcircumflex" unicode="ŵ" horiz-adv-x="825" d="M450 825h-75v75h75v-75zM375 750h-75v75h75v-75zM450 750v75h75v-75h-75zM300 150h75v-75h-75v-75h-225v675h225v-300h75v-75h-75v-150zM750 675v-675h-225v75h-75v75h75v150h-75v75h75v300h225zM225 600h-75v-525h75v525zM675 600h-75v-525h75v525zM450 375h-75v75h75 v-75zM450 225v-75h-75v75h75z"/>
    <glyph glyph-name="wdieresis" unicode="ẅ" horiz-adv-x="825" d="M225 750h-75v75h75v-75zM675 750h-75v75h75v-75zM300 150h75v-75h-75v-75h-225v675h225v-300h75v-75h-75v-150zM750 675v-675h-225v75h-75v75h75v150h-75v75h75v300h225zM225 600h-75v-525h75v525zM675 600h-75v-525h75v525zM450 375h-75v75h75v-75zM450 225v-75h-75v75 h75z"/>
    <glyph glyph-name="wgrave" unicode="ẁ" horiz-adv-x="825" d="M375 825h-75v75h75v-75zM375 750v75h75v-75h-75zM300 150h75v-75h-75v-75h-225v675h225v-300h75v-75h-75v-150zM750 675v-675h-225v75h-75v75h75v150h-75v75h75v300h225zM225 600h-75v-525h75v525zM675 600h-75v-525h75v525zM450 375h-75v75h75v-75zM450 225v-75h-75v75 h75z"/>
    <glyph glyph-name="x" unicode="x" horiz-adv-x="825" d="M150 600v-75h-75v150h225v-75h-150zM750 675v-150h-75v75h-150v75h225zM300 525v75h75v-75h-75zM525 525h-75v75h75v-75zM225 525v-75h-75v75h75zM375 450v75h75v-75h-75zM600 525h75v-75h-75v75zM300 450v-75h-75v75h75zM525 450h75v-75h-75v75zM375 300h-75v75h75v-75z M450 375h75v-75h-75v75zM300 225h-75v75h75v-75zM525 225v75h75v-75h-75zM225 150h-75v75h75v-75zM450 225v-75h-75v75h75zM600 150v75h75v-75h-75zM300 75v-75h-225v150h75v-75h150zM300 150h75v-75h-75v75zM525 150v-75h-75v75h75zM675 75v75h75v-150h-225v75h150z"/>
    <glyph glyph-name="y" unicode="y" horiz-adv-x="825" d="M150 600v-75h-75v150h225v-75h-150zM750 675v-150h-75v75h-150v75h225zM300 525v75h75v-75h-75zM525 525h-75v75h75v-75zM225 525v-75h-75v75h75zM375 450v75h75v-75h-75zM600 525h75v-75h-75v75zM300 450v-75h-75v75h75zM525 450h75v-75h-75v75zM450 375h75v-375h-225 v375h75v-300h75v300z"/>
    <glyph glyph-name="yacute" unicode="ý" horiz-adv-x="825" d="M525 825h-75v75h75v-75zM450 750h-75v75h75v-75zM150 600v-75h-75v150h225v-75h-150zM750 675v-150h-75v75h-150v75h225zM300 525v75h75v-75h-75zM525 525h-75v75h75v-75zM225 525v-75h-75v75h75zM375 450v75h75v-75h-75zM600 525h75v-75h-75v75zM300 450v-75h-75v75h75z M525 450h75v-75h-75v75zM450 375h75v-375h-225v375h75v-300h75v300z"/>
    <glyph glyph-name="ycircumflex" unicode="ŷ" horiz-adv-x="825" d="M450 825h-75v75h75v-75zM375 750h-75v75h75v-75zM450 750v75h75v-75h-75zM150 600v-75h-75v150h225v-75h-150zM750 675v-150h-75v75h-150v75h225zM300 525v75h75v-75h-75zM525 525h-75v75h75v-75zM225 525v-75h-75v75h75zM375 450v75h75v-75h-75zM600 525h75v-75h-75v75z M300 450v-75h-75v75h75zM525 450h75v-75h-75v75zM450 375h75v-375h-225v375h75v-300h75v300z"/>
    <glyph glyph-name="ydieresis" unicode="ÿ" horiz-adv-x="825" d="M225 750h-75v75h75v-75zM675 750h-75v75h75v-75zM150 600v-75h-75v150h225v-75h-150zM750 675v-150h-75v75h-150v75h225zM300 525v75h75v-75h-75zM525 525h-75v75h75v-75zM225 525v-75h-75v75h75zM375 450v75h75v-75h-75zM600 525h75v-75h-75v75zM300 450v-75h-75v75h75z M525 450h75v-75h-75v75zM450 375h75v-375h-225v375h75v-300h75v300z"/>
    <glyph glyph-name="ygrave" unicode="ỳ" horiz-adv-x="825" d="M375 825h-75v75h75v-75zM375 750v75h75v-75h-75zM150 600v-75h-75v150h225v-75h-150zM750 675v-150h-75v75h-150v75h225zM300 525v75h75v-75h-75zM525 525h-75v75h75v-75zM225 525v-75h-75v75h75zM375 450v75h75v-75h-75zM600 525h75v-75h-75v75zM300 450v-75h-75v75h75z M525 450h75v-75h-75v75zM450 375h75v-375h-225v375h75v-300h75v300z"/>
    <glyph glyph-name="z" unicode="z" d="M675 675v-225h-75v150h-450v-75h300v-75h-75v-75h-75v75h-225v225h600zM525 450h75v-75h-75v75zM300 300h-75v75h75v-75zM450 375h75v-75h-75v75zM375 300h75v-75h225v-225h-600v225h75v-150h450v75h-300v75h75v75zM225 225h-75v75h75v-75z"/>
    <glyph glyph-name="zero" unicode="0" horiz-adv-x="675" d="M150 600v75h375v-75h-375zM150 75h-75v525h75v-525zM600 600v-525h-75v525h75zM450 525v-375h-225v375h225zM375 450h-75v-225h75v225zM525 75v-75h-375v75h375z"/>
    <glyph glyph-name="one" unicode="1" horiz-adv-x="525" d="M450 675v-675h-225v450h-150v225h375zM375 600h-225v-75h150v-450h75v525z"/>
    <glyph glyph-name="two" unicode="2" d="M150 600v75h450v-75h-450zM450 375h-75v75h-300v150h75v-75h300v-150zM675 600v-225h-75v225h75zM375 300h-75v75h75v-75zM525 375h75v-75h-75v75zM450 300h75v-75h150v-225h-600v150h75v-75h450v75h-225v75h75v75zM300 225h-75v75h75v-75zM225 150h-75v75h75v-75z"/>
    <glyph glyph-name="three" unicode="3" d="M525 75h75v-75h-525v225h375v75h-225v75h225v75h-375v225h525v-75h-75v-525zM450 525v75h-300v-75h300zM675 600v-525h-75v525h75zM450 75v75h-300v-75h300z"/>
    <glyph glyph-name="four" unicode="4" d="M675 675v-675h-225v150h-375v525h225v-300h150v300h225zM450 225v75h-225v300h-75v-375h300zM600 600h-75v-525h75v525z"/>
    <glyph glyph-name="five" unicode="5" d="M675 675v-225h-375v-75h300v-75h-75v-150h-375v-75h-75v150h375v75h-300v75h75v150h375v75h-450v-225h-75v300h600zM600 300h75v-225h-75v225zM600 75v-75h-450v75h450z"/>
    <glyph glyph-name="six" unicode="6" d="M150 600v75h450v-225h-300v-75h300v-75h-75v-150h-300v375h300v75h-375zM150 75h-75v525h75v-525zM300 300v-75h150v75h-150zM675 300v-225h-75v225h75zM600 75v-75h-450v75h450z"/>
    <glyph glyph-name="seven" unicode="7" d="M675 675v-225h-75v150h-450v-75h300v-75h-75v-75h-75v75h-225v225h600zM525 450h75v-75h-75v75zM375 300h75v-300h-225v375h75v-300h75v225zM450 375h75v-75h-75v75z"/>
    <glyph glyph-name="eight" unicode="8" d="M150 600v75h450v-75h-450zM150 375h-75v225h75v-225zM675 600v-225h-75v225h75zM300 375h-75v150h300v-150h-75v75h-150v-75zM225 300h-75v75h75v-75zM300 300v75h150v-75h-150zM525 375h75v-75h-75v75zM150 75h-75v225h75v-225zM450 300h75v-150h-300v150h75v-75h150v75 zM600 300h75v-225h-75v225zM600 75v-75h-450v75h450z"/>
    <glyph glyph-name="nine" unicode="9" d="M150 600v75h450v-75h-450zM150 375h-75v225h75v-225zM675 600v-525h-75v525h75zM600 75v-75h-450v225h300v75h-300v75h75v150h300v-375h-300v-75h375zM450 375v75h-150v-75h150z"/>
    <glyph glyph-name="bullet" unicode="•" horiz-adv-x="375" d="M300 450v-225h-225v225h225zM225 375h-75v-75h75v75z"/>
    <glyph glyph-name="colon" unicode=":" horiz-adv-x="300" d="M225 450v-150h-150v150h150zM225 150v-150h-150v150h150z"/>
    <glyph glyph-name="comma" unicode="," horiz-adv-x="300" d="M225 150v-150h-75v-75h-75v225h150z"/>
    <glyph glyph-name="ellipsis" unicode="…" d="M225 150v-150h-150v150h150zM450 150v-150h-150v150h150zM675 150v-150h-150v150h150z"/>
    <glyph glyph-name="exclam" unicode="!" horiz-adv-x="375" d="M300 675v-450h-225v450h225zM225 600h-75v-300h75v300zM300 150v-150h-225v150h225z"/>
    <glyph glyph-name="exclamdown" unicode="¡" horiz-adv-x="375" d="M300 450v-150h-225v150h225zM300 225v-450h-225v450h225zM225 150h-75v-300h75v300z"/>
    <glyph glyph-name="period" unicode="." horiz-adv-x="300" d="M225 150v-150h-150v150h150z"/>
    <glyph glyph-name="question" unicode="?" horiz-adv-x="675" d="M600 675v-300h-75v225h-375v-150h75v75h225v-75h-75v-75h-75v-75h150v-75h-225v150h-150v300h525zM450 375h75v-75h-75v75zM450 150v-150h-225v150h225z"/>
    <glyph glyph-name="questiondown" unicode="¿" horiz-adv-x="675" d="M225 300v150h225v-150h-225zM600 75v-300h-525v300h150v150h225v-75h-150v-75h75v-75h75v-75h-225v75h-75v-150h375v225h75zM450 75v75h75v-75h-75z"/>
    <glyph glyph-name="emdash" unicode="—" horiz-adv-x="450" d="M375 450v-225h-300v225h300zM300 375h-150v-75h150v75z"/>
    <glyph glyph-name="endash" unicode="–" horiz-adv-x="600" d="M525 450v-225h-450v225h450zM450 375h-300v-75h300v75z"/>
    <glyph glyph-name="hyphen" unicode="-" d="M675 450v-225h-600v225h600zM600 375h-450v-75h450v75z"/>
    <glyph glyph-name="space" unicode=" " horiz-adv-x="450"/>
    <glyph glyph-name="plus" unicode="+" horiz-adv-x="675" d="M600 450v-225h-150v-150h-225v150h-150v225h150v150h225v-150h150zM525 375h-150v150h-75v-150h-150v-75h150v-150h75v150h150v75z"/>
    <glyph glyph-name="acute" unicode="´" horiz-adv-x="300" d="M225 900v-75h-75v75h75zM150 825v-75h-75v75h75z"/>
    <glyph glyph-name="breve" unicode="˘" horiz-adv-x="450" d="M150 900v-75h-75v75h75zM375 900v-75h-75v75h75zM300 825v-75h-150v75h150z"/>
    <glyph glyph-name="caron" unicode="ˇ" horiz-adv-x="375" d="M150 900v-75h-75v75h75zM300 900v-75h-75v75h75zM225 825v-75h-75v75h75z"/>
    <glyph glyph-name="cedilla" unicode="¸" horiz-adv-x="300" d="M150 0v-75h-75v75h75zM225 -75v-75h-75v75h75zM150 -150v-75h-75v75h75z"/>
    <glyph glyph-name="circumflex" unicode="ˆ" horiz-adv-x="450" d="M300 900v-75h-150v75h150zM75 825h75v-75h-75v75zM375 825v-75h-75v75h75z"/>
    <glyph glyph-name="dieresis" unicode="¨" horiz-adv-x="600" d="M150 825v-75h-75v75h75zM525 825v-75h-75v75h75z"/>
    <glyph glyph-name="dotaccent" unicode="˙" horiz-adv-x="300" d="M225 900v-150h-150v150h150z"/>
    <glyph glyph-name="grave" unicode="`" horiz-adv-x="300" d="M150 900v-75h-75v75h75zM225 825v-75h-75v75h75z"/>
    <glyph glyph-name="hungarumlaut" unicode="˝" horiz-adv-x="375" d="M75 900h75v-150h-75v150zM300 900v-150h-75v150h75z"/>
    <glyph glyph-name="macron" unicode="¯" horiz-adv-x="450" d="M375 825v-75h-300v75h300z"/>
    <glyph glyph-name="ogonek" unicode="˛" horiz-adv-x="300" d="M225 0v-75h-75v75h75zM150 -75v-75h-75v75h75zM225 -150v-75h-75v75h75z"/>
    <glyph glyph-name="ring" unicode="˚" horiz-adv-x="375" d="M225 900v-75h-75v75h75zM150 825v-75h-75v75h75zM300 825v-75h-75v75h75zM225 750v-75h-75v75h75z"/>
    <glyph glyph-name="tilde" unicode="˜" horiz-adv-x="450" d="M225 900v-75h-75v75h75zM375 900v-75h-75v75h75zM150 825v-75h-75v75h75zM300 825v-75h-75v75h75z"/>
    <glyph glyph-name="Pixel" horiz-adv-x="75" d="M75 75v-75h-75v75h75z"/>
  </font>
</defs>
</svg>
